# xmcd
#
# Track frame offsets:
# 150
# 21182
# 51370
# 71217
# 89677
# 102240
# 120975
# 138685
# 154800
# 177535
# 191117
#
# Disc length: 2746 seconds
#
#
# Revision: 2
# Processed by: cddbd v1.5.1PL0 Copyright (c) Steve Scherf et al.
# Submitted via: FreeRIP 2.90 
#
DISCID=a50ab80b
DTITLE=ZZ-TOP - Hotrods
DYEAR=1900
DGENRE=
TTITLE0=Arrested For Driving WHile Blind
TTITLE1=I`m Bad I`m Nationwide
TTITLE2=Cheap Sunglasses
TTITLE3=She Loves My Automobile
TTITLE4=Waiting For The Bus
TTITLE5=Jesus Left Chicago
TTITLE6=Tush
TTITLE7=Dust My Broom
TTITLE8=Low Down In The Streets
TTITLE9=A Fool For Your Stockings
TTITLE10=Hi-Fi Mama
EXTD=Rare Live Records
EXTT0=
EXTT1=
EXTT2=
EXTT3=
EXTT4=
EXTT5=
EXTT6=
EXTT7=
EXTT8=
EXTT9=
EXTT10=
PLAYORDER=
